<svg xmlns="http://www.w3.org/2000/svg" xmlns:xlink="http://www.w3.org/1999/xlink" version="1.1" id="Layer_1" x="0px" y="0px" width="572px" height="100px" viewBox="0 0 572 100" enable-background="new 0 0 572 100" xml:space="preserve">
<g>
	<path fill-rule="evenodd" clip-rule="evenodd" fill="#25657f" d="M80.397,18.389c10.315,5.953,11.444,7.314,11.392,18.545v25.854   c0.052,11.201-1.068,12.592-11.308,18.5L60.396,92.878c-11.113,6.414-12.365,6.42-23.462,0.016L16.89,81.326   C6.591,75.382,5.463,74.015,5.515,62.788V36.935C5.465,26.109,7.571,23.776,16.89,18.398L36.944,6.825   c11.08-6.395,12.34-6.392,23.427,0.006L80.397,18.389z"/>
	<path fill-rule="evenodd" clip-rule="evenodd" fill="#FFFFFF" d="M70.723,22.297c7.302,4.229,9.618,3.792,9.618,14.71v20.028   c0.041,8.652-0.825,9.726-8.734,14.289l-15.515,8.954c-8.583,4.952-9.571,4.993-18.123,0.011l-15.876-9.25   c-7.937-4.624-8.432-5.333-8.393-14.004v-19.97c-0.039-8.362,1.413-10.083,8.613-14.232l15.664-9.026   c8.561-4.933,9.539-4.95,18.096,0.005L70.723,22.297L70.723,22.297z M50.299,52.267v12.886c0,4.404-6.604,4.333-6.604,0V52.578   c0-3.913-0.087-6.456-3.787-8.598l-12.267-7.103c-3.65-2.114-0.455-7.679,3.203-5.547l10.364,6.042   c3.483,1.719,5.239,0.08,8.644-1.893l9.985-5.786c4.815-2.79,2.506-4.268-1.193-6.359l-6.239-3.525   c-6.38-3.606-6.454-2.667-12.005,0.494l-11.341,6.458c-5.54,3.154-6.491,4.041-6.432,10.103v15.1   c-0.029,6.348,0.608,7.121,6.432,10.482l11.335,6.542c6.276,3.621,6.998,3.642,13.268-0.009l10.659-6.205   c5.48-3.189,6.32-4.041,6.369-9.525l0.022-10.088c0.014-6.053-1.611-5.381-6.57-2.515l-8.437,4.876   C52.531,47.355,50.299,48.366,50.299,52.267z"/>
</g>
</svg>